<svg xmlns="http://www.w3.org/2000/svg" width="197.343" height="36.172" viewBox="0 0 197.343 36.172">
  <g id="_1_Logo_AdobeAcrobat" data-name="1_Logo_AdobeAcrobat" transform="translate(0 -62.868)">
    <g id="Group_312309" data-name="Group 312309" transform="translate(0.404 173.186)">
      <g id="Group_312306" data-name="Group 312306" transform="translate(-0.404 -110.318)">
        <g id="Layer_3" data-name="Layer 3">
          <g id="Layer_86" data-name="Layer 86">
            <path id="_64" data-name=" 64" d="M36.022-87.671c-2.775-2.949-10.449-1.75-12.249-1.45a31.249,31.249,0,0,1-5.125-6.749,30.061,30.061,0,0,0,1.75-8.849c0-2.7-1.075-5.6-4.075-5.6a3.039,3.039,0,0,0-2.525,1.475c-1.275,2.2-.775,6.749,1.275,11.349a76.758,76.758,0,0,1-5.2,12.2C6.8-84.071.277-81.072-.348-77.747a2.808,2.808,0,0,0,.9,2.65,3.807,3.807,0,0,0,2.65.95c3.924,0,7.849-5.45,10.5-10.124a66.668,66.668,0,0,1,9.349-2.45C27.2-83.1,30.9-82.547,32.773-82.547c2.549,0,3.5-1.1,3.85-2.024A3.124,3.124,0,0,0,36.022-87.671Zm-2.7,1.9c-.125.725-1.05,1.45-2.775,1.075a13.872,13.872,0,0,1-5.449-2.75,22.649,22.649,0,0,1,6.724-.1C32.622-87.4,33.547-86.946,33.323-85.771Zm-17.9-22.123a1.006,1.006,0,0,1,.875-.549c.95,0,1.15,1.15,1.15,2.1a29.207,29.207,0,0,1-1.25,6.674C14.6-103.919,14.825-106.868,15.424-107.894ZM15.2-87.121a62.973,62.973,0,0,0,2.475-5.949,31.529,31.529,0,0,0,3.4,4.45A56.078,56.078,0,0,0,15.2-87.121Zm-6.274,4.3c-2.525,4.049-5,6.6-6.449,6.6a1.029,1.029,0,0,1-.65-.225.933.933,0,0,1-.325-.925C1.776-78.822,4.651-80.921,8.926-82.821Z" transform="translate(0.404 110.318)" fill="#fff"/>
          </g>
        </g>
      </g>
      <g id="Group_312307" data-name="Group 312307" transform="translate(46.501 -102.21)">
        <path id="Path_596775" data-name="Path 596775" d="M74.938-83.848l-1.176,3.625a.265.265,0,0,1-.269.2H70.652c-.171,0-.22-.1-.2-.245l4.9-14.134A4.448,4.448,0,0,0,75.6-95.9a.164.164,0,0,1,.147-.172h3.92c.122,0,.171.024.2.147l5.56,15.677c.049.123.024.22-.122.22H82.116a.247.247,0,0,1-.269-.171L80.6-83.848Zm4.752-3.062c-.491-1.617-1.47-4.581-1.936-6.32h-.024c-.393,1.64-1.274,4.335-1.911,6.32Z" transform="translate(-70.45 97.395)" fill="#fff"/>
        <path id="Path_596776" data-name="Path 596776" d="M93.313-86.679c0-3.5,2.621-6.443,7.1-6.443.2,0,.441.025.809.05V-97.9a.154.154,0,0,1,.171-.172h3.087c.122,0,.147.049.147.147v14.478a13.835,13.835,0,0,0,.1,1.788c0,.121-.024.171-.171.22a12.305,12.305,0,0,1-4.826.98C96.106-80.458,93.313-82.515,93.313-86.679Zm7.913-3.479a2.542,2.542,0,0,0-.907-.122,3.268,3.268,0,0,0-3.5,3.429c0,2.426,1.4,3.479,3.258,3.479a3.456,3.456,0,0,0,1.152-.147Z" transform="translate(-78.178 98.07)" fill="#fff"/>
        <path id="Path_596777" data-name="Path 596777" d="M125.1-84.325c0,3.847-2.5,6.394-6.026,6.394-4.188,0-6.051-3.16-6.051-6.32,0-3.478,2.328-6.345,6.1-6.345C123.062-90.6,125.1-87.632,125.1-84.325Zm-8.622.024c0,2.155,1,3.527,2.645,3.527,1.421,0,2.5-1.224,2.5-3.478,0-1.911-.784-3.5-2.645-3.5C117.551-87.754,116.473-86.48,116.473-84.3Z" transform="translate(-84.838 95.544)" fill="#fff"/>
        <path id="Path_596778" data-name="Path 596778" d="M137.084-98.07c.2,0,.244.024.244.2v5.022a7.864,7.864,0,0,1,2.058-.271,5.607,5.607,0,0,1,5.879,5.83c0,4.581-3.626,6.834-7.349,6.834a12.851,12.851,0,0,1-3.846-.563.287.287,0,0,1-.147-.244V-97.9c0-.123.049-.172.171-.172Zm1.69,7.839a5.031,5.031,0,0,0-1.446.195V-83.4a3.847,3.847,0,0,0,.907.1,3.371,3.371,0,0,0,3.552-3.674C141.787-89.2,140.489-90.231,138.774-90.231Z" transform="translate(-91.904 98.07)" fill="#fff"/>
        <path id="Path_596779" data-name="Path 596779" d="M156.176-83.37c.122,1.4,1.1,2.548,3.5,2.548a7.588,7.588,0,0,0,3.013-.563c.074-.049.148-.024.148.122v2.327c0,.171-.05.246-.172.294a8.221,8.221,0,0,1-3.748.71c-4.6,0-6.222-3.16-6.222-6.2,0-3.381,2.083-6.468,5.928-6.468a5,5,0,0,1,5.168,5.292,7.808,7.808,0,0,1-.122,1.641.209.209,0,0,1-.2.2,22.757,22.757,0,0,1-2.524.1Zm3.184-2.375a7.916,7.916,0,0,0,1.225-.05v-.171A1.993,1.993,0,0,0,158.5-87.9a2.321,2.321,0,0,0-2.351,2.156Z" transform="translate(-98.25 95.544)" fill="#fff"/>
        <path id="Path_596780" data-name="Path 596780" d="M182.744-83.848l-1.176,3.625a.265.265,0,0,1-.269.2h-2.841c-.171,0-.22-.1-.2-.245l4.9-14.134a4.485,4.485,0,0,0,.245-1.493.164.164,0,0,1,.146-.172h3.92c.122,0,.171.024.2.147l5.561,15.677c.048.123.025.22-.123.22h-3.184a.247.247,0,0,1-.269-.171l-1.249-3.65ZM187.5-86.91c-.49-1.617-1.47-4.581-1.935-6.32h-.025c-.392,1.64-1.274,4.335-1.91,6.32Z" transform="translate(-106.889 97.395)" fill="#fff"/>
        <path id="Path_596781" data-name="Path 596781" d="M210.452-78.519c0,.122-.025.171-.122.2a7.6,7.6,0,0,1-2.743.392,6.058,6.058,0,0,1-6.467-6.27c0-3.675,2.768-6.394,6.932-6.394a6.643,6.643,0,0,1,2.253.271c.122.048.147.121.147.269l-.025,2.523c0,.171-.1.2-.2.171a6.117,6.117,0,0,0-2.058-.293c-2.057,0-3.552,1.126-3.552,3.331,0,2.548,1.886,3.381,3.6,3.381a8.031,8.031,0,0,0,2.033-.221c.147-.049.2,0,.2.1Z" transform="translate(-114.617 95.544)" fill="#fff"/>
        <path id="Path_596782" data-name="Path 596782" d="M220.615-90.35a.272.272,0,0,1,.294.22,4.677,4.677,0,0,1,.269,1.372,5.11,5.11,0,0,1,3.895-1.838c.147,0,.2.05.2.2v3.013c0,.123-.049.172-.22.172a5.038,5.038,0,0,0-3.7,1.053l-.025,7.79c0,.147-.048.2-.22.2h-2.939c-.2,0-.246-.073-.246-.22v-8.451c0-1.053-.024-2.474-.122-3.332,0-.122.024-.171.147-.171Z" transform="translate(-120.254 95.544)" fill="#fff"/>
        <path id="Path_596783" data-name="Path 596783" d="M241.862-84.325c0,3.847-2.5,6.394-6.026,6.394-4.188,0-6.05-3.16-6.05-6.32,0-3.478,2.327-6.345,6.1-6.345C239.829-90.6,241.862-87.632,241.862-84.325Zm-8.623.024c0,2.155,1,3.527,2.646,3.527,1.42,0,2.5-1.224,2.5-3.478,0-1.911-.784-3.5-2.646-3.5C234.317-87.754,233.24-86.48,233.24-84.3Z" transform="translate(-124.306 95.544)" fill="#fff"/>
        <path id="Path_596784" data-name="Path 596784" d="M253.85-98.07c.2,0,.244.024.244.2v5.022a7.864,7.864,0,0,1,2.058-.271,5.607,5.607,0,0,1,5.879,5.83c0,4.581-3.626,6.834-7.349,6.834a12.844,12.844,0,0,1-3.846-.563.287.287,0,0,1-.148-.244V-97.9c0-.123.049-.172.171-.172Zm1.69,7.839a5.031,5.031,0,0,0-1.446.195V-83.4a3.848,3.848,0,0,0,.907.1,3.371,3.371,0,0,0,3.552-3.674C258.553-89.2,257.255-90.231,255.54-90.231Z" transform="translate(-131.372 98.07)" fill="#fff"/>
        <path id="Path_596785" data-name="Path 596785" d="M279.559-80.9c0,.637,0,1.151.05,1.74,0,.048,0,.1-.05.122a13.519,13.519,0,0,1-5.34,1.1c-2.719,0-4.948-1.249-4.948-4.09,0-2.6,2.279-3.969,5.536-3.969a10.218,10.218,0,0,1,1.445.05v-.172c0-.465-.294-1.542-2.351-1.542a7.853,7.853,0,0,0-3.234.661.144.144,0,0,1-.22-.122v-2.474a.213.213,0,0,1,.172-.245,9.214,9.214,0,0,1,3.846-.76c3.527,0,5.095,2.18,5.095,4.973Zm-3.307-2.524a9.14,9.14,0,0,0-1.225-.073c-1.739,0-2.449.563-2.449,1.445,0,.808.612,1.47,2.155,1.47a4.923,4.923,0,0,0,1.519-.221Z" transform="translate(-137.652 95.544)" fill="#fff"/>
        <path id="Path_596786" data-name="Path 596786" d="M293.7-80.287c0,.147-.024.269-.171.319a6.1,6.1,0,0,1-2.18.342c-2.131,0-3.381-1.054-3.381-3.5V-89.2H286.5c-.148-.024-.2-.073-.2-.22v-2.4c0-.171.049-.22.22-.22h1.47a27.014,27.014,0,0,1,.246-2.964.259.259,0,0,1,.22-.22l2.866-.368c.122-.024.2-.024.2.147-.073.759-.122,2.2-.122,3.405h2.253c.147,0,.2.049.2.2v2.475c0,.122-.049.146-.171.17h-2.3v5.243c0,1.077.318,1.568,1.323,1.568a4.829,4.829,0,0,0,.833-.1c.1,0,.171.024.171.172Z" transform="translate(-143.409 97.238)" fill="#fff"/>
      </g>
    </g>
  </g>
</svg>
